<?xml version="1.0" encoding="UTF-8" standalone="no"?>
<svg
   xmlns:dc="http://purl.org/dc/elements/1.1/"
   xmlns:cc="http://creativecommons.org/ns#"
   xmlns:rdf="http://www.w3.org/1999/02/22-rdf-syntax-ns#"
   xmlns:svg="http://www.w3.org/2000/svg"
   xmlns="http://www.w3.org/2000/svg"
   xmlns:sodipodi="http://sodipodi.sourceforge.net/DTD/sodipodi-0.dtd"
   xmlns:inkscape="http://www.inkscape.org/namespaces/inkscape"
   id="svg8"
   version="1.1"
   viewBox="0 0 8.4666665 8.4666669"
   height="32"
   width="32"
   sodipodi:docname="auto.svg"
   inkscape:version="0.92.4 (5da689c313, 2019-01-14)">
  <sodipodi:namedview
     pagecolor="#ffffff"
     bordercolor="#666666"
     borderopacity="1"
     objecttolerance="10"
     gridtolerance="10"
     guidetolerance="10"
     inkscape:pageopacity="0"
     inkscape:pageshadow="2"
     inkscape:window-width="1920"
     inkscape:window-height="1009"
     id="namedview8"
     showgrid="false"
     units="px"
     inkscape:zoom="13.455443"
     inkscape:cx="-11.595859"
     inkscape:cy="9.1969465"
     inkscape:window-x="-8"
     inkscape:window-y="-8"
     inkscape:window-maximized="1"
     inkscape:current-layer="layer1" />
  <defs
     id="defs2" />
  <metadata
     id="metadata5">
    <rdf:RDF>
      <cc:Work
         rdf:about="">
        <dc:format>image/svg+xml</dc:format>
        <dc:type
           rdf:resource="http://purl.org/dc/dcmitype/StillImage" />
        <dc:title />
      </cc:Work>
    </rdf:RDF>
  </metadata>
  <g
     id="layer1"
     transform="matrix(0.48587407,0,0,0.48587407,-29.9988,-55.881719)">
    <path
       style="stroke-width:1.01683795"
       d="M 16.054688,0.02148438 C 7.2300813,0.02168699 0.07637476,7.1753933 0.07617187,16 0.07637455,24.824607 7.2300812,31.978313 16.054688,31.978516 24.880057,31.979391 32.034953,24.825369 32.035156,16 32.034953,7.1746311 24.880057,0.02060895 16.054688,0.02148438 Z m 0,1.13671872 C 24.252061,1.1578187 30.897744,7.8026268 30.898438,16 c 3.84e-4,8.198136 -6.645614,14.844134 -14.84375,14.84375 -0.09656,-9.736531 -0.05263,-6.497738 -0.05224,-14.695111 6.94e-4,-8.196611 -0.117876,-2.058172 0.05224,-14.9904359 z"
       transform="matrix(0.54455125,0,0,0.54455125,61.741924,115.01276)"
       id="path3713"
       inkscape:connector-curvature="0"
       sodipodi:nodetypes="cccccccccc" />
  </g>
</svg>
