<?xml version="1.0" encoding="UTF-8" standalone="no"?>
<!-- Created with Inkscape (http://www.inkscape.org/) -->

<svg
   xmlns:dc="http://purl.org/dc/elements/1.1/"
   xmlns:cc="http://creativecommons.org/ns#"
   xmlns:rdf="http://www.w3.org/1999/02/22-rdf-syntax-ns#"
   xmlns:svg="http://www.w3.org/2000/svg"
   xmlns="http://www.w3.org/2000/svg"
   xmlns:sodipodi="http://sodipodi.sourceforge.net/DTD/sodipodi-0.dtd"
   xmlns:inkscape="http://www.inkscape.org/namespaces/inkscape"
   width="32"
   height="32"
   viewBox="0 0 8.4666663 8.4666668"
   version="1.1"
   id="svg8"
   inkscape:version="0.92.4 (5da689c313, 2019-01-14)"
   sodipodi:docname="light.svg">
  <defs
     id="defs2" />
  <sodipodi:namedview
     id="base"
     pagecolor="#ffffff"
     bordercolor="#666666"
     borderopacity="1.0"
     inkscape:pageopacity="0.0"
     inkscape:pageshadow="2"
     inkscape:zoom="15.839192"
     inkscape:cx="-0.20840671"
     inkscape:cy="14.735164"
     inkscape:document-units="mm"
     inkscape:current-layer="layer1"
     showgrid="false"
     inkscape:window-width="1920"
     inkscape:window-height="1009"
     inkscape:window-x="-8"
     inkscape:window-y="-8"
     inkscape:window-maximized="1"
     units="px"
     fit-margin-top="0"
     fit-margin-left="0"
     fit-margin-right="0"
     fit-margin-bottom="0" />
  <metadata
     id="metadata5">
    <rdf:RDF>
      <cc:Work
         rdf:about="">
        <dc:format>image/svg+xml</dc:format>
        <dc:type
           rdf:resource="http://purl.org/dc/dcmitype/StillImage" />
        <dc:title />
      </cc:Work>
    </rdf:RDF>
  </metadata>
  <g
     inkscape:label="Layer 1"
     inkscape:groupmode="layer"
     id="layer1"
     transform="translate(-59.680961,-124.06236)">
    <path
       style="stroke-width:0.48470458"
       d="M 15.998047 8.3789062 A 7.6167874 7.6167874 0 0 0 8.3808594 15.996094 A 7.6167874 7.6167874 0 0 0 15.998047 23.611328 A 7.6167874 7.6167874 0 0 0 23.615234 15.996094 A 7.6167874 7.6167874 0 0 0 15.998047 8.3789062 z M 15.998047 10.494141 A 5.5017805 5.5017805 0 0 1 21.5 15.996094 A 5.5017805 5.5017805 0 0 1 15.998047 21.498047 A 5.5017805 5.5017805 0 0 1 10.496094 15.996094 A 5.5017805 5.5017805 0 0 1 15.998047 10.494141 z "
       transform="matrix(0.26458333,0,0,0.26458333,59.680961,124.06236)"
       id="path3713" />
    <rect
       id="rect3715"
       width="0.48580039"
       height="1.2630811"
       x="63.67263"
       y="124.05988"
       style="stroke-width:0.12824476" />
    <rect
       id="rect3715-75"
       width="0.48580039"
       height="1.2630811"
       x="63.67263"
       y="131.26593"
       style="stroke-width:0.12824476" />
    <rect
       style="stroke-width:0.12824476"
       y="41.2882"
       x="135.67009"
       height="1.2630811"
       width="0.48580039"
       id="rect3792"
       transform="rotate(45)" />
    <rect
       style="stroke-width:0.12824476"
       y="48.494255"
       x="135.67009"
       height="1.2630811"
       width="0.48580039"
       id="rect3794"
       transform="rotate(45)" />
    <rect
       style="stroke-width:0.12824476"
       y="-68.150093"
       x="128.05156"
       height="1.2630811"
       width="0.48580039"
       id="rect3796"
       transform="rotate(90)" />
    <rect
       style="stroke-width:0.12824476"
       y="-60.944042"
       x="128.05156"
       height="1.2630811"
       width="0.48580039"
       id="rect3798"
       transform="rotate(90)" />
    <rect
       transform="rotate(135)"
       id="rect3800"
       width="0.48580039"
       height="1.2630811"
       x="45.279869"
       y="-140.14755"
       style="stroke-width:0.12824476" />
    <rect
       transform="rotate(135)"
       id="rect3802"
       width="0.48580039"
       height="1.2630811"
       x="45.279869"
       y="-132.9415"
       style="stroke-width:0.12824476" />
  </g>
</svg>
