<?xml version="1.0" encoding="UTF-8" standalone="no"?>
<svg
   xmlns:dc="http://purl.org/dc/elements/1.1/"
   xmlns:cc="http://creativecommons.org/ns#"
   xmlns:rdf="http://www.w3.org/1999/02/22-rdf-syntax-ns#"
   xmlns:svg="http://www.w3.org/2000/svg"
   xmlns="http://www.w3.org/2000/svg"
   xmlns:sodipodi="http://sodipodi.sourceforge.net/DTD/sodipodi-0.dtd"
   xmlns:inkscape="http://www.inkscape.org/namespaces/inkscape"
   width="188.29454"
   height="26.193336"
   viewBox="0 0 188.29454 26.193336"
   version="1.1"
   id="svg42"
   sodipodi:docname="rabbitmqlogo.svg"
   inkscape:version="0.92.4 (5da689c313, 2019-01-14)">
  <metadata
     id="metadata46">
    <rdf:RDF>
      <cc:Work
         rdf:about="">
        <dc:format>image/svg+xml</dc:format>
        <dc:type
           rdf:resource="http://purl.org/dc/dcmitype/StillImage" />
        <dc:title>Artboard Copy</dc:title>
      </cc:Work>
    </rdf:RDF>
  </metadata>
  <sodipodi:namedview
     pagecolor="#ffffff"
     bordercolor="#666666"
     borderopacity="1"
     objecttolerance="10"
     gridtolerance="10"
     guidetolerance="10"
     inkscape:pageopacity="0"
     inkscape:pageshadow="2"
     inkscape:window-width="3838"
     inkscape:window-height="2128"
     id="namedview44"
     showgrid="false"
     fit-margin-top="0"
     fit-margin-left="0"
     fit-margin-right="0"
     fit-margin-bottom="0"
     inkscape:zoom="5.6806225"
     inkscape:cx="56.451823"
     inkscape:cy="49.532666"
     inkscape:window-x="0"
     inkscape:window-y="30"
     inkscape:window-maximized="0"
     inkscape:current-layer="svg42" />
  <!-- Generator: Sketch 42 (36781) - http://www.bohemiancoding.com/sketch -->
  <title
     id="title2">Artboard Copy</title>
  <desc
     id="desc4">Created with Sketch.</desc>
  <defs
     id="defs6" />
  <g
     id="g996">
    <path
       style="fill:#ff6600;fill-rule:nonzero;stroke:none;stroke-width:1"
       inkscape:connector-curvature="0"
       id="Shape"
       d="M 22.870867,10.622731 H 15.346611 C 14.744892,10.550951 14.286702,10.020888 14.286702,9.3969602 V 1.5012317 c 0,-0.67362166 -0.546517,-1.21472753 -1.214481,-1.21472753 h -2.633213 c -0.6734844,0 -1.2144801,0.54662736 -1.2144801,1.21472753 V 9.4797825 C 9.1914058,10.081625 8.694573,10.567516 8.0983737,10.622731 H 6.1276038 C 5.5479656,10.550951 5.1008162,10.06506 5.0621736,9.4797825 V 1.5012317 c 0,-0.67362166 -0.546516,-1.21472753 -1.21448,-1.21472753 H 1.21448 C 0.54099565,0.28650417 0,0.83313153 0,1.5012317 V 11.837458 24.542403 c 0,0.673622 0.54651602,1.214727 1.21448,1.214727 h 2.6332136 6.5913144 2.633213 9.804166 c 0.673485,0 1.214481,-0.546627 1.214481,-1.214727 V 11.837458 c -0.0055,-0.673621 -0.546516,-1.214727 -1.220001,-1.214727 z m -3.466788,8.712908 c 0,0.673622 -0.546516,1.214728 -1.21448,1.214728 h -2.633214 c -0.673484,0 -1.21448,-0.546628 -1.21448,-1.214728 V 16.85097 c 0,-0.673622 0.546516,-1.214728 1.21448,-1.214728 h 2.633214 c 0.673484,0 1.21448,0.546627 1.21448,1.214728 z" />
    <g
       id="g984">
      <path
         style="fill:#ff6600;fill-rule:nonzero;stroke:none;stroke-width:1"
         inkscape:connector-curvature="0"
         id="path21"
         d="M 41.623543,25.779216 40.3649,19.904353 c -0.182172,-0.877917 -0.375385,-1.656447 -0.596199,-2.330068 -0.215294,-0.679144 -0.518915,-1.247857 -0.89982,-1.711662 -0.386425,-0.463805 -0.888778,-0.811659 -1.512579,-1.054604 -0.623801,-0.237424 -1.440815,-0.358897 -2.451042,-0.358897 h -2.644254 v 11.330094 h -2.88163 V 0.33067608 h 6.304256 c 1.043348,0 2.053575,0.11042977 3.0362,0.32576782 0.977104,0.21533805 1.843801,0.5742348 2.594571,1.0711688 0.750769,0.4969339 1.352489,1.1595126 1.810679,1.9822143 0.45819,0.8227018 0.684525,1.8331342 0.684525,3.0368187 0,0.9220886 -0.110407,1.7392689 -0.325701,2.4404979 -0.215295,0.701229 -0.540996,1.3085924 -0.971584,1.8165694 -0.430589,0.507977 -0.971584,0.938653 -1.611947,1.286507 -0.640362,0.347854 -1.396652,0.62945 -2.257828,0.844788 v 0.07178 c 0.839095,0.215338 1.512579,0.491413 2.014932,0.81718 0.502353,0.33129 0.90534,0.723316 1.20896,1.181599 0.2981,0.458284 0.529955,0.982825 0.695566,1.573624 0.165611,0.590799 0.320181,1.269943 0.474751,2.026386 l 1.468417,6.97364 z M 40.922457,7.0503276 c 0,-1.0546043 -0.187693,-1.8773061 -0.557557,-2.4570624 C 39.995036,4.0135089 39.498203,3.5828328 38.890963,3.3067584 38.278202,3.030684 37.582637,2.8650393 36.804265,2.8098244 36.025894,2.7546095 35.225441,2.7270021 34.408427,2.7270021 h -2.141901 v 9.3313159 h 1.584345 c 0.866697,0 1.716833,-0.06074 2.566969,-0.187731 0.850136,-0.126994 1.600905,-0.36994 2.268869,-0.728836 0.667964,-0.358897 1.20896,-0.866874 1.622987,-1.5239313 0.402987,-0.6570571 0.612761,-1.5128878 0.612761,-2.5674921 z" />
      <path
         style="fill:#ff6600;fill-rule:nonzero;stroke:none;stroke-width:1"
         inkscape:connector-curvature="0"
         id="path23"
         d="M 57.776127,25.779216 V 23.45467 h -0.07176 c -0.242896,0.458283 -0.563077,0.855831 -0.971584,1.198163 -0.408507,0.342332 -0.855657,0.629449 -1.341449,0.85583 -0.485792,0.226381 -0.999186,0.397548 -1.529141,0.513499 -0.535475,0.115951 -1.048869,0.171166 -1.540181,0.171166 -0.75629,0 -1.429774,-0.115951 -2.014933,-0.353375 -0.590679,-0.231903 -1.081991,-0.563192 -1.473937,-0.988347 -0.397466,-0.425154 -0.701086,-0.944174 -0.91086,-1.551538 -0.209774,-0.607364 -0.314661,-1.280985 -0.314661,-2.026386 0,-0.673622 0.132489,-1.269943 0.397466,-1.800005 0.264978,-0.530063 0.612761,-0.993868 1.05439,-1.396937 0.436109,-0.403069 0.943982,-0.745401 1.52362,-1.03804 0.579639,-0.292639 1.175838,-0.524541 1.794119,-0.701229 0.61828,-0.182209 1.242081,-0.314725 1.865883,-0.397547 0.623801,-0.08282 1.208959,-0.126994 1.744435,-0.126994 0.298099,0 0.590679,-0.0055 0.866697,-0.01104 0.276018,-0.0055 0.563077,-0.03865 0.866697,-0.09939 v -0.375461 c 0,-0.646014 -0.01104,-1.292028 -0.0276,-1.938043 -0.01656,-0.646014 -0.126968,-1.22577 -0.325702,-1.739268 -0.198733,-0.513499 -0.524434,-0.933132 -0.971584,-1.247857 -0.447149,-0.314725 -1.115113,-0.474848 -1.987331,-0.474848 -0.518914,0 -0.982624,0.04969 -1.396652,0.143559 -0.414027,0.09387 -0.772851,0.248467 -1.07095,0.463805 -0.2981,0.215338 -0.540996,0.502455 -0.728688,0.861352 -0.187693,0.358897 -0.314661,0.800616 -0.386426,1.325157 h -2.793304 c 0.01104,-0.888959 0.198733,-1.639882 0.568598,-2.258289 0.364344,-0.6184063 0.844616,-1.1208617 1.429774,-1.5128874 0.590679,-0.3920257 1.258643,-0.6736216 2.009412,-0.8558307 0.75077,-0.1822091 1.51258,-0.270553 2.296472,-0.270553 1.992851,0 3.472309,0.4527621 4.438372,1.3527647 0.966064,0.9000024 1.451856,2.3300684 1.451856,4.2846754 v 12.31844 z M 56.224905,17.81723 c -0.563077,0 -1.181358,0.06074 -1.843801,0.187731 -0.662444,0.126994 -1.286245,0.331289 -1.865883,0.623928 -0.579639,0.292639 -1.05991,0.6681 -1.451856,1.142948 -0.391946,0.474848 -0.585159,1.060126 -0.585159,1.755833 0,0.745401 0.226335,1.358286 0.673485,1.838656 0.45267,0.480369 1.048869,0.717794 1.794118,0.717794 0.441629,0 0.872218,-0.06626 1.280725,-0.209817 0.408506,-0.138037 0.789411,-0.325768 1.142715,-0.568713 0.353303,-0.237424 0.673484,-0.530063 0.966063,-0.866874 0.287059,-0.336811 0.524435,-0.701229 0.701087,-1.098776 0.143529,-0.325768 0.259457,-0.623929 0.353303,-0.88896 0.09385,-0.265031 0.160091,-0.541106 0.209774,-0.811659 0.04968,-0.270553 0.07728,-0.546627 0.08833,-0.839266 0.01104,-0.287117 0.01656,-0.618407 0.01656,-0.988346 h -1.479458 z" />
      <path
         style="fill:#ff6600;fill-rule:nonzero;stroke:none;stroke-width:1"
         inkscape:connector-curvature="0"
         id="path25"
         d="m 79.200659,17.18778 c 0,1.153992 -0.115927,2.269332 -0.353303,3.351544 -0.237376,1.082212 -0.629321,2.042951 -1.181358,2.882217 -0.552036,0.839266 -1.275204,1.512888 -2.169503,2.015343 -0.894299,0.502456 -2.009412,0.756444 -3.33982,0.756444 -1.236561,0 -2.27439,-0.193252 -3.113485,-0.574235 -0.839095,-0.386504 -1.5181,-0.916567 -2.025973,-1.601231 -0.507874,-0.684665 -0.877738,-1.490802 -1.098553,-2.423934 -0.220814,-0.92761 -0.331222,-1.943564 -0.331222,-3.036819 V 0.33067608 h 2.500725 V 11.136229 h 0.08833 c 0.15457,-0.530063 0.391946,-0.993868 0.701086,-1.402458 0.314661,-0.4085902 0.679005,-0.7509225 1.098552,-1.0380399 0.419548,-0.2815959 0.883259,-0.4969339 1.385612,-0.6460141 0.502353,-0.1490802 1.026787,-0.2263811 1.567783,-0.2263811 0.839095,0 1.578824,0.1325158 2.213666,0.4030687 0.634842,0.270553 1.186878,0.6404927 1.645068,1.1098192 0.463711,0.4693265 0.850136,1.0104322 1.159277,1.6288392 0.314661,0.618407 0.557557,1.275464 0.739729,1.971171 0.182172,0.695708 0.30914,1.40798 0.386425,2.136816 0.08833,0.723315 0.126968,1.430066 0.126968,2.11473 z m -2.88163,-0.06626 c 0,-0.40859 -0.02208,-0.866873 -0.06072,-1.37485 -0.04416,-0.507977 -0.115927,-1.032518 -0.215294,-1.562581 -0.09937,-0.535585 -0.242896,-1.054605 -0.425068,-1.562582 -0.182172,-0.507977 -0.414027,-0.960739 -0.701086,-1.358286 -0.287059,-0.397547 -0.634842,-0.717793 -1.043349,-0.960739 -0.408507,-0.248467 -0.883258,-0.369939 -1.424253,-0.369939 -0.574118,0 -1.087512,0.132515 -1.529141,0.397547 -0.441629,0.265031 -0.828055,0.612885 -1.153756,1.043561 -0.325702,0.430676 -0.5962,0.922089 -0.811494,1.474238 -0.215294,0.552148 -0.386425,1.11534 -0.513394,1.689575 -0.126968,0.574235 -0.215294,1.137427 -0.270498,1.689575 -0.0552,0.552149 -0.08281,1.043562 -0.08281,1.474238 0,0.673621 0.04968,1.380372 0.143529,2.120251 0.09385,0.745401 0.287059,1.435587 0.568598,2.070559 0.281538,0.634971 0.684525,1.159512 1.20896,1.573624 0.524434,0.414111 1.21448,0.618407 2.081177,0.618407 0.574118,0 1.081991,-0.11043 1.52362,-0.325768 0.436109,-0.215338 0.811494,-0.507977 1.126154,-0.872396 0.314661,-0.364418 0.568598,-0.789572 0.772851,-1.269942 0.204254,-0.480369 0.364344,-0.977303 0.485792,-1.490802 0.121448,-0.513498 0.204254,-1.032518 0.253937,-1.546017 0.04416,-0.513498 0.06624,-0.999389 0.06624,-1.457673 z" />
      <path
         style="fill:#ff6600;fill-rule:nonzero;stroke:none;stroke-width:1"
         inkscape:connector-curvature="0"
         id="path27"
         d="m 96.937588,17.18778 c 0,1.153992 -0.115927,2.269332 -0.353303,3.351544 -0.237376,1.082212 -0.629321,2.042951 -1.181358,2.882217 -0.552036,0.839266 -1.275204,1.512888 -2.169503,2.015343 -0.894299,0.502456 -2.009412,0.756444 -3.33982,0.756444 -1.236561,0 -2.27439,-0.193252 -3.113485,-0.574235 -0.839095,-0.386504 -1.5181,-0.916567 -2.025974,-1.601231 -0.507873,-0.684665 -0.877737,-1.490802 -1.098552,-2.423934 -0.220815,-0.92761 -0.331222,-1.943564 -0.331222,-3.036819 V 0.33067608 h 2.500725 V 11.136229 h 0.08833 c 0.15457,-0.530063 0.391946,-0.993868 0.701086,-1.402458 0.314661,-0.4085902 0.679005,-0.7509225 1.098552,-1.0380399 0.419548,-0.2815959 0.883259,-0.4969339 1.385612,-0.6460141 0.502353,-0.1490802 1.026787,-0.2263811 1.567783,-0.2263811 0.839095,0 1.578824,0.1325158 2.213666,0.4030687 0.634842,0.270553 1.186878,0.6404927 1.645068,1.1098192 0.463711,0.4693265 0.850136,1.0104322 1.159277,1.6288392 0.31466,0.618407 0.557556,1.275464 0.739729,1.971171 0.182171,0.695708 0.30914,1.40798 0.386425,2.136816 0.08833,0.723315 0.126968,1.430066 0.126968,2.11473 z m -2.88163,-0.06626 c 0,-0.40859 -0.02208,-0.866873 -0.06072,-1.37485 -0.04416,-0.507977 -0.115927,-1.032518 -0.215294,-1.562581 -0.09937,-0.535585 -0.242896,-1.054605 -0.425068,-1.562582 -0.182172,-0.507977 -0.414027,-0.960739 -0.701086,-1.358286 -0.287059,-0.397547 -0.634842,-0.717793 -1.043349,-0.960739 -0.408507,-0.248467 -0.883258,-0.369939 -1.424254,-0.369939 -0.574117,0 -1.087511,0.132515 -1.52914,0.397547 -0.441629,0.265031 -0.828055,0.612885 -1.153756,1.043561 -0.325702,0.430676 -0.5962,0.922089 -0.811494,1.474238 -0.215294,0.552148 -0.386425,1.11534 -0.513394,1.689575 -0.126968,0.574235 -0.215294,1.137427 -0.270498,1.689575 -0.0552,0.552149 -0.08281,1.043562 -0.08281,1.474238 0,0.673621 0.04968,1.380372 0.143529,2.120251 0.09385,0.745401 0.287059,1.435587 0.568598,2.070559 0.281538,0.634971 0.684525,1.159512 1.20896,1.573624 0.524434,0.414111 1.21448,0.618407 2.081177,0.618407 0.574118,0 1.081991,-0.11043 1.52362,-0.325768 0.436109,-0.215338 0.811494,-0.507977 1.126154,-0.872396 0.314661,-0.364418 0.568598,-0.789572 0.772851,-1.269942 0.204254,-0.480369 0.364344,-0.977303 0.485792,-1.490802 0.121448,-0.513498 0.204254,-1.032518 0.253937,-1.546017 0.04416,-0.513498 0.06624,-0.999389 0.06624,-1.457673 z" />
      <path
         style="fill:#ff6600;fill-rule:nonzero;stroke:none;stroke-width:1"
         inkscape:connector-curvature="0"
         id="path29"
         d="M 101.36492,3.6435692 V 0.33067608 h 3.31222 V 3.6435692 Z m 0.39747,22.1356468 V 8.2208831 h 2.50072 V 25.779216 Z" />
      <path
         style="fill:#ff6600;fill-rule:nonzero;stroke:none;stroke-width:1"
         inkscape:connector-curvature="0"
         id="path31"
         d="m 114.15008,10.32457 v 10.805553 c 0,0.938653 0.22634,1.661968 0.68453,2.180988 0.45819,0.51902 1.18688,0.773009 2.18606,0.773009 0.34779,0 0.64588,-0.02761 0.88326,-0.08282 0.2429,-0.05522 0.51891,-0.143558 0.83358,-0.25951 v 2.252767 c -0.36987,0.06074 -0.73973,0.11043 -1.1096,0.143559 -0.36434,0.03865 -0.73421,0.05522 -1.10959,0.05522 -0.82806,0 -1.5457,-0.0773 -2.15294,-0.231902 -0.60724,-0.154602 -1.11512,-0.408591 -1.52362,-0.767487 -0.40851,-0.353376 -0.71213,-0.817181 -0.91086,-1.396937 -0.19874,-0.579756 -0.2981,-1.292028 -0.2981,-2.142337 V 10.32457 h -2.86507 V 8.2153616 h 2.86507 V 4.1294602 l 2.50072,-1.5846672 v 5.6705686 h 4.73647 V 10.32457 Z" />
      <polygon
         style="fill:#b8b8b8;fill-rule:nonzero;stroke:none;stroke-width:1"
         points="113.99551,3.5589046 106.50438,25.943019 103.66139,25.943019 96.186819,3.5589046 96.098493,3.5589046 96.098493,25.943019 93.526004,25.943019 93.526004,0.5 97.848449,0.5 105.06908,22.149756 105.14085,22.149756 112.37805,0.5 116.64529,0.5 116.64529,25.94854 114.06728,25.94854 114.06728,3.5589046 "
         id="polygon33"
         transform="translate(29.379376,-0.10000002)" />
      <path
         style="fill:#b8b8b8;fill-rule:nonzero;stroke:none;stroke-width:1"
         inkscape:connector-curvature="0"
         id="path35"
         d="m 160.212,25.857131 c -1.18688,0 -2.24127,-0.176688 -3.15213,-0.530063 -0.91086,-0.353376 -1.71131,-0.839267 -2.39583,-1.457673 -0.68453,-0.618407 -1.25865,-1.341722 -1.72788,-2.169945 -0.46923,-0.828224 -0.84461,-1.711662 -1.13167,-2.655836 -0.28706,-0.944175 -0.49683,-1.921478 -0.6238,-2.937432 -0.12697,-1.015954 -0.1877,-2.020865 -0.1877,-3.014733 0,-1.054604 0.0552,-2.109208 0.17114,-3.158291 0.11592,-1.049083 0.30362,-2.0595154 0.57411,-3.0368189 0.2705,-0.9773034 0.63485,-1.8773061 1.08752,-2.7220938 0.45819,-0.8392662 1.0323,-1.5681027 1.72787,-2.1865094 0.69557,-0.6184067 1.52362,-1.10429774 2.47312,-1.457673 C 157.98177,0.17668763 159.09689,0 160.36657,0 c 1.23656,0 2.31855,0.18220912 3.2515,0.54662736 0.92742,0.36441822 1.72787,0.86687374 2.39583,1.49632344 0.66797,0.6294496 1.22,1.3693291 1.65611,2.2251598 0.43611,0.8503092 0.7839,1.7613548 1.03783,2.7276153 0.25394,0.9662605 0.43059,1.9711714 0.52996,3.0147331 0.0994,1.043561 0.15457,2.070558 0.15457,3.08099 0,0.491413 -0.0166,1.054605 -0.0552,1.684054 -0.0386,0.62945 -0.0994,1.286507 -0.18769,1.971172 -0.0883,0.684664 -0.21529,1.37485 -0.37538,2.070558 -0.16009,0.695707 -0.36987,1.352764 -0.6238,1.96565 -0.25394,0.612885 -0.55756,1.170555 -0.91086,1.673011 -0.35331,0.502455 -0.76734,0.900002 -1.23105,1.18712 l 0.0718,0.07178 5.23882,-0.325768 v 2.468106 z m 6.05032,-12.804332 c 0,-0.662579 -0.0221,-1.385894 -0.0607,-2.169945 -0.0442,-0.784052 -0.13249,-1.5736244 -0.2705,-2.3576758 C 165.79309,7.7411269 165.58884,6.97364 165.32938,6.239282 165.06992,5.504924 164.7111,4.8478669 164.27499,4.2736321 163.83336,3.7049188 163.29789,3.2466352 162.66304,2.904303 162.0282,2.5619707 161.26087,2.3908045 160.37209,2.3908045 c -0.93846,0 -1.73891,0.1656447 -2.40688,0.496934 -0.66796,0.3312893 -1.23104,0.7730084 -1.69475,1.3306787 -0.46371,0.5576703 -0.83357,1.198163 -1.12063,1.9269995 -0.28154,0.7288365 -0.49683,1.4852804 -0.6514,2.2803747 -0.14905,0.7950944 -0.24842,1.5901886 -0.2981,2.3852826 -0.0497,0.800616 -0.0718,1.546017 -0.0718,2.241725 0,0.662578 0.0276,1.37485 0.0883,2.142337 0.0607,0.767487 0.16561,1.534974 0.3257,2.307982 0.15457,0.767487 0.37538,1.512888 0.65692,2.230682 0.28154,0.717793 0.64589,1.358286 1.09303,1.910435 0.44715,0.552149 0.98815,0.993868 1.62299,1.325157 0.63484,0.331289 1.39113,0.496934 2.25231,0.496934 0.97158,0 1.79964,-0.154602 2.47864,-0.469327 0.67901,-0.314724 1.24208,-0.734358 1.69475,-1.258899 0.45267,-0.530063 0.80598,-1.137427 1.06543,-1.827613 0.25946,-0.690186 0.45267,-1.424544 0.57964,-2.197552 0.12697,-0.773008 0.20426,-1.562581 0.23186,-2.357675 0.0276,-0.806138 0.0442,-1.573625 0.0442,-2.302461 z" />
    </g>
  </g>
  <g
     aria-label="TM"
     style="font-style:normal;font-variant:normal;font-weight:normal;font-stretch:normal;font-size:40px;line-height:1.25;font-family:Raleway-v4020;-inkscape-font-specification:'Raleway-v4020, Normal';font-variant-ligatures:normal;font-variant-caps:normal;font-variant-numeric:normal;font-feature-settings:normal;text-align:start;letter-spacing:0px;word-spacing:0px;writing-mode:lr-tb;text-anchor:start;fill:#b8b8b8;fill-opacity:1;stroke:none"
     id="text956">
    <path
       d="m 180.78835,20.154465 v -0.923999 h -5.46933 v 0.923999 h 2.212 v 5.702667 h 1.05466 v -5.702667 z"
       style="font-style:normal;font-variant:normal;font-weight:600;font-stretch:normal;font-size:9.33333302px;font-family:Raleway-v4020;-inkscape-font-specification:'Raleway-v4020 Semi-Bold';fill:#b8b8b8;fill-opacity:1"
       id="path878" />
    <path
       d="m 187.23987,25.857132 h 1.05467 v -6.626666 h -1.12 l -2.19334,4.050666 -2.19333,-4.050666 h -1.12 v 6.626666 h 1.04533 v -4.722667 l 1.96,3.584 h 0.616 l 1.95067,-3.584 z"
       style="font-style:normal;font-variant:normal;font-weight:600;font-stretch:normal;font-size:9.33333302px;font-family:Raleway-v4020;-inkscape-font-specification:'Raleway-v4020 Semi-Bold';fill:#b8b8b8;fill-opacity:1"
       id="path880" />
  </g>
</svg>
